<svg xmlns="http://www.w3.org/2000/svg" xmlns:xlink="http://www.w3.org/1999/xlink" width="24" height="24" viewBox="0 0 24 24">
    <defs>
        <filter id="6m4n43qwha">
            <feColorMatrix in="SourceGraphic" values="0 0 0 0 0.074510 0 0 0 0 0.105882 0 0 0 0 0.121569 0 0 0 0.300000 0"/>
        </filter>
        <path id="5lvu2ccr4b" d="M12 2c5.523 0 10 4.477 10 10 0 2.694-1.065 5.139-2.797 6.937L21.8 22.4c.331.442.242 1.069-.2 1.4-.408.306-.973.253-1.319-.104L20.2 23.6l-2.525-3.365C16.063 21.348 14.107 22 12 22c-2.107 0-4.063-.652-5.675-1.765L3.8 23.6c-.331.442-.958.531-1.4.2-.408-.306-.516-.863-.269-1.295L2.2 22.4l2.597-3.463C3.065 17.139 2 14.694 2 12 2 6.477 6.477 2 12 2zm0 2c-4.418 0-8 3.582-8 8s3.582 8 8 8 8-3.582 8-8-3.582-8-8-8zm0 2c.513 0 .936.386.993.883L13 7v4h4c.513 0 .936.386.993.883L18 12c0 .513-.386.936-.883.993L17 13h-5c-.513 0-.936-.386-.993-.883L11 12V7c0-.552.448-1 1-1zM18.613.21l.094.083 5 5c.39.39.39 1.024 0 1.414-.36.36-.928.388-1.32.083l-.094-.083-5-5c-.39-.39-.39-1.024 0-1.414.36-.36.928-.388 1.32-.083zM6.707.293c.36.36.388.928.083 1.32l-.083.094-5 5c-.39.39-1.024.39-1.414 0-.36-.36-.388-.928-.083-1.32l.083-.094 5-5c.39-.39 1.024-.39 1.414 0z"/>
    </defs>
    <g fill="none" fill-rule="evenodd" filter="url(#6m4n43qwha)" transform="translate(-161 -20)">
        <g transform="translate(161 20)">
            <mask id="yos4dl9pyc" fill="#fff">
                <use xlink:href="#5lvu2ccr4b"/>
            </mask>
            <use fill="#000" fill-rule="nonzero" xlink:href="#5lvu2ccr4b"/>
            <g fill="#192B37" mask="url(#yos4dl9pyc)">
                <path d="M0 0H24V24H0z"/>
            </g>
        </g>
    </g>
</svg>
