<?xml version="1.0" encoding="UTF-8"?>
<svg width="22px" height="24px" viewBox="0 0 22 24" version="1.1" xmlns="http://www.w3.org/2000/svg" xmlns:xlink="http://www.w3.org/1999/xlink">
    <title>gas</title>
    <g id="Page-1" stroke="none" stroke-width="1" fill="none" fill-rule="evenodd">
        <g id="Jabama-icons" transform="translate(-1268.000000, -810.000000)" fill="#131B1F">
            <path d="M1276,814.5 L1282,814.5 L1282,811.5 L1276,811.5 L1276,814.5 Z M1288.75,814.5 L1283.5,814.5 L1283.5,810.75 C1283.5,810.336 1283.164,810 1282.75,810 L1275.25,810 C1274.836,810 1274.5,810.336 1274.5,810.75 L1274.5,814.5 L1269.25,814.5 C1268.836,814.5 1268.5,814.836 1268.5,815.25 C1268.5,815.664 1268.836,816 1269.25,816 L1288.75,816 C1289.164,816 1289.5,815.664 1289.5,815.25 C1289.5,814.836 1289.164,814.5 1288.75,814.5 L1288.75,814.5 Z M1277.5,832.5 L1280.5,832.5 L1280.5,831 L1277.5,831 L1277.5,832.5 Z M1285.75,817.5 C1285.336,817.5 1285,817.836 1285,818.25 L1285,827.25 C1285,828.4905 1283.9905,829.5 1282.75,829.5 L1275.25,829.5 C1274.0095,829.5 1273,828.4905 1273,827.25 L1273,818.25 C1273,817.836 1272.664,817.5 1272.25,817.5 C1271.836,817.5 1271.5,817.836 1271.5,818.25 L1271.5,827.25 C1271.5,829.3185 1273.183,831 1275.25,831 L1276,831 L1276,833.25 C1276,833.664 1276.336,834 1276.75,834 L1281.25,834 C1281.664,834 1282,833.664 1282,833.25 L1282,831 L1282.75,831 C1284.8185,831 1286.5,829.3185 1286.5,827.25 L1286.5,818.25 C1286.5,817.836 1286.164,817.5 1285.75,817.5 L1285.75,817.5 Z M1279,821.3343 C1279.804,822.8928 1280.5,824.4903 1280.5,825.0003 C1280.5,825.8283 1279.8265,826.5003 1279,826.5003 C1278.1735,826.5003 1277.5,825.8283 1277.5,825.0003 C1277.5,824.4903 1278.196,822.8928 1279,821.3343 M1279,828.0003 C1280.6545,828.0003 1282,826.6533 1282,825.0003 C1282,823.6308 1280.0455,820.0803 1279.654,819.3828 C1279.3885,818.9103 1278.6115,818.9103 1278.346,819.3828 C1277.9545,820.0803 1276,823.6308 1276,825.0003 C1276,826.6533 1277.3455,828.0003 1279,828.0003" id="gas"></path>
        </g>
    </g>
</svg>