<svg xmlns="http://www.w3.org/2000/svg" xmlns:xlink="http://www.w3.org/1999/xlink" width="24" height="24" viewBox="0 0 24 24">
    <defs>
        <path id="0030f7absa" d="M12 5.783c-1.667 0-3 1.391-3 3.087 0 1.695 1.333 3.087 3 3.087s3-1.392 3-3.087c0-1.696-1.333-3.087-3-3.087zM5 24c-1.059 0-1.919-.798-1.995-1.848L3 22V11.874l-1.277 1.338c-.352.369-.918.41-1.317.114l-.097-.081c-.368-.352-.41-.918-.113-1.318l.08-.096 11-11.522c.364-.38.954-.41 1.352-.087l.095.087 11 11.522c.382.4.367 1.033-.032 1.414-.37.352-.937.367-1.322.053l-.092-.086L21 11.875V22c0 1.073-.812 1.92-1.85 1.995L19 24H5zm7-21.552L5 9.779V22l3-.001v-6.024c0-1.033.807-1.893 1.85-1.97L10 14h4c1.114 0 2 .893 2 1.975v6.024L19 22V9.78l-7-7.332zm2 13.485l-3.996.004-.004.038v6.024h4v-6.066zm-2-8.15c.543 0 1 .477 1 1.087s-.457 1.087-1 1.087c-.543 0-1-.478-1-1.087 0-.61.457-1.087 1-1.087z"/>
    </defs>
    <g fill="none" fill-rule="evenodd">
        <g>
            <g>
                <g>
                    <g>
                        <g>
                            <g transform="translate(-332 -778) translate(-44 748) translate(65) translate(26 20) translate(72) translate(213 10)">
                                <mask id="a5vj7h5nub" fill="#fff">
                                    <use xlink:href="#0030f7absa"/>
                                </mask>
                                <use fill="#000" fill-rule="nonzero" xlink:href="#0030f7absa"/>
                                <g fill="#192B37" mask="url(#a5vj7h5nub)">
                                    <path d="M0 0H24V24H0z"/>
                                </g>
                            </g>
                        </g>
                    </g>
                </g>
            </g>
        </g>
    </g>
</svg>
