<?xml version="1.0" encoding="UTF-8"?>
<svg width="24px" height="24px" viewBox="0 0 24 24" version="1.1" xmlns="http://www.w3.org/2000/svg" xmlns:xlink="http://www.w3.org/1999/xlink">
    <title>electricity</title>
    <g id="Page-1" stroke="none" stroke-width="1" fill="none" fill-rule="evenodd">
        <g id="Jabama-icons" transform="translate(-1267.000000, -878.000000)" fill="#131B1F">
            <path d="M1286.5,888.5 C1286.497,891.836 1284.2545,894.8015 1281.0445,895.7105 C1280.722,895.8035 1280.5,896.0975 1280.5,896.4335 L1280.5,900.5 L1277.5,900.5 L1277.5,896.4335 C1277.5,896.0975 1277.278,895.8035 1276.954,895.7105 C1273.7455,894.8015 1271.5015,891.836 1271.5,888.5 L1271.5,885.5 L1286.5,885.5 L1286.5,888.5 Z M1290.25,884 L1285,884 L1285,878.75 C1285,878.336 1284.664,878 1284.25,878 C1283.836,878 1283.5,878.336 1283.5,878.75 L1283.5,884 L1274.5,884 L1274.5,878.75 C1274.5,878.336 1274.164,878 1273.75,878 C1273.336,878 1273,878.336 1273,878.75 L1273,884 L1267.75,884 C1267.336,884 1267,884.336 1267,884.75 C1267,885.1655 1267.336,885.5 1267.75,885.5 L1270,885.5 L1270,888.5015 C1270.0015,892.313 1272.442,895.7195 1276,896.981 L1276,901.25 C1276,901.6655 1276.336,902 1276.75,902 L1281.25,902 C1281.664,902 1282,901.6655 1282,901.25 L1282,896.981 C1285.5565,895.7195 1287.997,892.313 1288,888.5 L1288,885.5 L1290.25,885.5 C1290.664,885.5 1291,885.1655 1291,884.75 C1291,884.336 1290.664,884 1290.25,884 L1290.25,884 Z" id="electricity"></path>
        </g>
    </g>
</svg>