<?xml version="1.0" encoding="UTF-8"?>
<svg width="24px" height="25px" viewBox="0 0 24 25" version="1.1" xmlns="http://www.w3.org/2000/svg" xmlns:xlink="http://www.w3.org/1999/xlink">
    <title>water</title>
    <g id="Page-1" stroke="none" stroke-width="1" fill="none" fill-rule="evenodd">
        <g id="Jabama-icons" transform="translate(-1267.000000, -844.000000)" fill="#131B1F" fill-rule="nonzero">
            <path d="M1269.22577,860.548935 C1269.52389,860.116668 1270.16248,860.116668 1270.46059,860.548935 L1270.46059,860.548935 L1270.5662,860.704597 L1270.79946,861.058806 C1271.05111,861.446779 1271.30282,861.853283 1271.53861,862.260016 L1271.53861,862.260016 L1271.79509,862.714954 L1271.91362,862.935404 C1272.40806,863.871411 1272.68632,864.597985 1272.68632,865.161013 C1272.68632,866.726453 1271.40862,868.004152 1269.84318,868.004152 C1268.27774,868.004152 1267.00004,866.726453 1267.00004,865.161013 C1267.00004,864.597985 1267.2783,863.871411 1267.77275,862.935404 C1267.88786,862.717483 1268.0134,862.491787 1268.14776,862.260016 C1268.38354,861.853283 1268.63525,861.446779 1268.88691,861.058806 L1268.88691,861.058806 Z M1288.68015,844.002909 C1289.93161,844.002909 1291,845.071294 1291,846.322763 L1291,846.322763 L1291,867.254152 C1291,867.668365 1290.66421,868.004152 1290.25,868.004152 L1290.25,868.004152 L1282.75536,868.004152 C1282.34115,868.004152 1282.00536,867.668365 1282.00536,867.254152 L1282.00536,867.254152 L1282.00536,861.707334 C1282.00536,861.072375 1281.77266,860.529412 1281.27909,860.03581 L1281.27909,860.03581 L1276.48706,855.16647 C1276.13783,854.747394 1275.5346,854.5 1274.86543,854.5 L1274.86543,854.5 L1272.007,854.499 L1272.00768,855.218854 C1272.00768,855.633068 1271.67189,855.968854 1271.25768,855.968854 L1271.25768,855.968854 L1267.75004,855.968854 C1267.33583,855.968854 1267.00004,855.633068 1267.00004,855.218854 L1267.00004,855.218854 L1267.00004,851.322021 C1267.00004,850.070552 1268.06843,849.002167 1269.3199,849.002167 L1269.3199,849.002167 L1274.86543,849.002167 C1276.50687,849.002167 1278.13918,849.587333 1279.40936,850.626796 L1279.40936,850.626796 L1285.313,855.247 L1285.313,848.646 L1278.7495,848.646872 C1278.3698,848.646872 1278.05601,848.364718 1278.00635,847.998643 L1278.00635,847.998643 L1277.9995,847.896872 L1277.9995,844.752909 C1277.9995,844.338696 1278.33529,844.002909 1278.7495,844.002909 L1278.7495,844.002909 Z M1269.843,862.352 L1269.67253,862.629064 L1269.44547,863.012312 L1269.20797,863.433502 L1269.00728,863.813013 L1268.8448,864.145514 C1268.62277,864.620881 1268.50004,864.985261 1268.50004,865.161013 C1268.50004,865.898026 1269.10617,866.504152 1269.84318,866.504152 C1270.58019,866.504152 1271.18632,865.898026 1271.18632,865.161013 C1271.18632,864.985261 1271.0636,864.620881 1270.84156,864.145514 L1270.84156,864.145514 L1270.67909,863.813013 L1270.58729,863.636028 C1270.48186,863.43644 1270.36581,863.227788 1270.2409,863.012312 L1270.2409,863.012312 L1270.12853,862.820632 L1269.843,862.352 Z M1288.68015,845.502909 L1279.499,845.502 L1279.499,847.146 L1286.06372,847.146872 C1286.47794,847.146872 1286.81372,847.482658 1286.81372,847.896872 L1286.81372,847.896872 L1286.81372,856.788457 C1286.81372,857.413658 1286.09371,857.764407 1285.60141,857.379025 L1285.60141,857.379025 L1278.25034,851.62545 C1277.27151,850.903039 1276.06743,850.502167 1274.86543,850.502167 L1274.86543,850.502167 L1269.3199,850.502167 C1268.89685,850.502167 1268.5,850.898979 1268.5,851.322021 L1268.5,851.322021 L1268.5,854.468 L1270.507,854.468 L1270.50768,853.75 C1270.50768,853.370304 1270.78983,853.056509 1271.1559,853.006847 L1271.1559,853.006847 L1271.25768,853 L1274.86543,853 C1275.95607,853 1276.98634,853.42253 1277.59758,854.16006 L1277.59758,854.16006 L1282.34378,858.979208 C1283.11012,859.745547 1283.50536,860.667782 1283.50536,861.707334 L1283.50536,861.707334 L1283.505,866.504 L1289.499,866.504 L1289.5,846.322763 C1289.5,845.932263 1289.16189,845.564112 1288.77714,845.509784 L1288.77714,845.509784 L1288.68015,845.502909 Z" id="water"></path>
        </g>
    </g>
</svg>