<?xml version="1.0" encoding="UTF-8"?>
<svg width="22px" height="24px" viewBox="0 0 22 24" version="1.1" xmlns="http://www.w3.org/2000/svg" xmlns:xlink="http://www.w3.org/1999/xlink">
    <title>squat-toilet</title>
    <g id="Page-1" stroke="none" stroke-width="1" fill="none" fill-rule="evenodd">
        <g id="Jabama-icons" transform="translate(-768.000000, -1048.000000)" fill="#131B1F">
            <path d="M773,1048 L785,1048 C787.4855,1048 789.5,1050.0145 789.5,1052.5 L789.5,1067.5 C789.5,1069.9855 787.4855,1072 785,1072 L773,1072 C770.5145,1072 768.5,1069.9855 768.5,1067.5 L768.5,1052.5 C768.5,1050.0145 770.5145,1048 773,1048 L773,1048 Z M773.8025,1066 C774.8405,1067.7925 776.78,1069 779,1069 C781.22,1069 783.1595,1067.7925 784.1975,1066 L788,1066 L788,1067.5 C788,1069.156 786.656,1070.5 785,1070.5 L773,1070.5 C771.344,1070.5 770,1069.156 770,1067.5 L770,1066 L773.8025,1066 Z M773.189,1064.5 L770,1064.5 L770,1063 L773,1063 C773,1063.519 773.066,1064.0215 773.189,1064.5 L773.189,1064.5 Z M770,1061.5 L773,1061.5 L773,1060 L770,1060 L770,1061.5 Z M770,1058.5 L773,1058.5 L773,1057 L770,1057 L770,1058.5 Z M773.189,1055.5 L770,1055.5 L770,1052.5 C770,1050.844 771.344,1049.5 773,1049.5 L785,1049.5 C786.656,1049.5 788,1050.844 788,1052.5 L788,1055.5 L784.811,1055.5 C784.145,1052.9125 781.796,1051 779,1051 C776.204,1051 773.855,1052.9125 773.189,1055.5 L773.189,1055.5 Z M785,1058.5 L788,1058.5 L788,1057 L785,1057 L785,1058.5 Z M785,1061.5 L788,1061.5 L788,1060 L785,1060 L785,1061.5 Z M785,1063 L788,1063 L788,1064.5 L784.811,1064.5 C784.934,1064.0215 785,1063.519 785,1063 L785,1063 Z M779,1052.5 C781.4855,1052.5 783.5,1054.5145 783.5,1057 L783.5,1063 C783.5,1065.4855 781.4855,1067.5 779,1067.5 C776.5145,1067.5 774.5,1065.4855 774.5,1063 L774.5,1057 C774.5,1054.5145 776.5145,1052.5 779,1052.5 L779,1052.5 Z M779,1054 C778.172,1054 777.5,1054.672 777.5,1055.5 C777.5,1056.328 778.172,1057 779,1057 C779.828,1057 780.5,1056.328 780.5,1055.5 C780.5,1054.672 779.828,1054 779,1054 L779,1054 Z" id="squat-toilet"></path>
        </g>
    </g>
</svg>