<svg xmlns="http://www.w3.org/2000/svg" viewBox="0 0 125 125" stroke="#706f6f" fill="#706f6f"  stroke-miterlimit="10">
    <path class="cls-1"
    d="M61.5,113.65H29.27a12.15,12.15,0,0,1-12.53-12.53q0-17.64,0-35.28a11.63,11.63,0,0,1,5.32-10.15q18.46-12.45,37-24.79c1.94-1.3,3.7-.93,5.53.3q18,12.09,36.06,24.13a12.43,12.43,0,0,1,5.66,8.54,11.61,11.61,0,0,1,.12,1.77q0,17.83,0,35.66a12.15,12.15,0,0,1-12.33,12.35Zm16.4-8.15H93.25c3.52,0,5-1.52,5-5,0-11.21,0-22.42,0-33.63a5.39,5.39,0,0,0-2.65-5q-16.55-11-33-22.09a1.6,1.6,0,0,0-2.12,0Q43.9,51,27.21,62.07a4.83,4.83,0,0,0-2.33,4.36q0,17.19,0,34.4c0,3,1.67,4.66,4.64,4.67,4.89,0,9.77,0,14.66,0,.33,0,.65,0,1.09,0V104c0-5,0-9.94,0-14.91A12.17,12.17,0,0,1,57.44,77h8.29A12.15,12.15,0,0,1,77.89,89.08c0,5,0,9.94,0,14.91Zm-24.46-.09H69.73c0-5.5.06-10.93,0-16.35a4,4,0,0,0-4-3.93c-2.71-.06-5.43-.06-8.14,0a4,4,0,0,0-4.05,3.92C53.39,94.47,53.44,99.9,53.44,105.41Z" />
    <path class="cls-1"
    d="M86.06,29c0-1.86,0-3.46,0-5.06a8,8,0,0,1,8.09-8.07,32.37,32.37,0,0,1,6.08.28,7.78,7.78,0,0,1,6.21,7.8c0,6,0,12,0,18a1.94,1.94,0,0,0,1,1.86c3.17,2.13,6.3,4.32,9.42,6.52a3.88,3.88,0,0,1,1.74,4.2,4,4,0,0,1-3.47,3.27,4.53,4.53,0,0,1-3.42-1.06l-36.1-25L64.45,24c-2.22-1.52-3.64-1.52-5.82,0L11.79,56.49a5,5,0,0,1-3.5,1.24,4.11,4.11,0,0,1-3.65-3.24A4,4,0,0,1,6.45,50.2q6.36-4.46,12.75-8.87L53.92,17.24c5-3.48,10.08-3.52,15.14,0C74.65,21,80.22,24.91,86.06,29Zm12.16,8.4V24h-4c0,3.39,0,6.69,0,10a1.18,1.18,0,0,0,.4.83C95.75,35.68,96.91,36.45,98.22,37.35Z" />
</svg>