<svg xmlns="http://www.w3.org/2000/svg" viewBox="0 0 125 125" stroke="#706f6f" fill="#706f6f"  stroke-miterlimit="10">
    <path
    d="M62.42,116.42H15.15a6.19,6.19,0,0,1-1.67-.14A2.35,2.35,0,0,1,12,113.57c.29-2.86.64-5.72,1-8.57q.75-6.47,1.49-12.92.86-7.41,1.7-14.81c.49-4.23,1-8.47,1.45-12.7.56-4.94,1.14-9.87,1.71-14.81l1.44-12.7c.13-1.15.25-2.3.44-3.45a2.17,2.17,0,0,1,2.28-2q4.05-.07,8.1,0a2.35,2.35,0,0,1,2.2,2.27,2.28,2.28,0,0,1-2.06,2.26c-1.76.1-3.53.1-5.29.07-.71,0-.91.2-1,.93-.6,5.61-1.28,11.21-1.92,16.82-.56,4.9-1.1,9.8-1.66,14.7s-1.15,9.87-1.71,14.81c-.49,4.23-1,8.46-1.44,12.69s-.93,8.54-1.5,12.8c-.37,2.86-.45,2.85,2.38,2.85H106.8c1.4,0,1.35,0,1.18-1.42-.51-4.23-1-8.46-1.45-12.69-.57-4.94-1.15-9.87-1.71-14.81-.49-4.27-1-8.54-1.45-12.81s-1-8.53-1.49-12.8-.95-8.31-1.43-12.47c-.3-2.67-.63-5.34-.89-8-.06-.66-.45-.56-.85-.56-2.21,0-4.42,0-6.63-.07a2.27,2.27,0,0,1-1.47-3.84,2.21,2.21,0,0,1,1.7-.73c3,0,6.08,0,9.12,0a2.2,2.2,0,0,1,2.43,2.12c.41,3,.72,5.94,1.07,8.91l1.5,13q.72,6.3,1.43,12.59.86,7.45,1.72,14.92t1.66,14.7c.49,4.27,1,8.53,1.48,12.8.13,1.15.28,2.3.31,3.46a2.15,2.15,0,0,1-2.1,2.29c-.41,0-.83,0-1.24,0Z" />
    <path
    d="M85.55,33.3c0,2.43,0,4.86,0,7.3a1.33,1.33,0,0,0,.55,1.22,4.49,4.49,0,0,1,.47,6.65,4.67,4.67,0,0,1-6.72,0,4.52,4.52,0,0,1,.4-6.66,1.5,1.5,0,0,0,.62-1.31c0-4.56,0-9.13,0-13.7a18.35,18.35,0,1,0-36.69.51c0,4.38,0,8.76,0,13.14a1.49,1.49,0,0,0,.59,1.33A4.48,4.48,0,0,1,46,47.36a4.62,4.62,0,0,1-8.74-1.77,4.22,4.22,0,0,1,1.58-3.66,1.74,1.74,0,0,0,.68-1.51c0-5.05-.23-10.11.14-15.15A21.9,21.9,0,0,1,48.42,8.92,23,23,0,0,1,85.55,27.34C85.56,29.33,85.55,31.31,85.55,33.3Z" />
    <path
    d="M62.81,31.57H73.5c1.65,0,2.75.92,2.75,2.29s-1.07,2.33-2.72,2.34q-10.85,0-21.7,0a2.45,2.45,0,0,1-2.66-2.3,2.57,2.57,0,0,1,2.74-2.36C55.54,31.63,59.18,31.57,62.81,31.57Z" />
</svg>