<svg xmlns="http://www.w3.org/2000/svg" viewBox="0 0 125 125" stroke="#706f6f" fill="#706f6f"  stroke-miterlimit="10">
    <path
    d="M65.44,104.6c-8.2,0-16.41,0-24.62,0-1,0-1.31-.16-1.18-1.29a11.31,11.31,0,1,0-22.56-.61c.06,1-.2,1.17-1.13.93-3-.79-6.09-1.52-9.14-2.25a3.39,3.39,0,0,1-2.6-2.61,17,17,0,0,1-.15-6,2.21,2.21,0,0,1,1-1.54,2.32,2.32,0,0,0,1-2.16c-.35-3.09,1-5.93,1.24-8.94,0-.55.45-.68.9-.77l4-.77a45.65,45.65,0,0,0,6.91-2.33c4.92-1.84,9.83-3.72,14.74-5.58,3.84-1.45,7.87-1.72,11.91-2A75,75,0,0,1,93.69,81a9,9,0,0,0,4.42,1.55,58.63,58.63,0,0,1,14.58,3.12,21.41,21.41,0,0,1,9,6.38,6.09,6.09,0,0,1,1.5,4,24.36,24.36,0,0,1-.67,6.07,1.71,1.71,0,0,1-1.27,1.37,29.8,29.8,0,0,1-7,1.1c-.61,0-.61-.3-.57-.74a12.18,12.18,0,0,0-.25-4.21,11.33,11.33,0,0,0-22.24,4c.14,1.11-.36,1-1.09,1ZM42.58,81.77c3.46,0,6.91,0,10.36,0,1.4,0,1.8-.37,2-1.76a28.88,28.88,0,0,0-.11-6.57c-.14-1.52-.54-1.9-2.08-1.93a42.25,42.25,0,0,0-11.32,1.14c-4.15,1-8,2.72-10.61,6.28-.39.53-.95,1.07-.61,1.8s1.09.51,1.68.56C35.44,81.55,39,81.62,42.58,81.77Zm31.07,1,10.93.49c.34,0,.75.15,1-.23s-.17-.72-.41-1a24.2,24.2,0,0,0-5-4.22C74,73.88,67.16,72.35,60,72c-1.06-.05-1.34.3-1.09,1.37.56,2.45,1.19,4.88,1.72,7.33a1.7,1.7,0,0,0,1.85,1.55C66.21,82.4,69.93,82.58,73.65,82.75Z" />
    <path d="M93.2,102.36a9.33,9.33,0,1,1,9.35,9.35A9.29,9.29,0,0,1,93.2,102.36Z" />
    <path d="M37.69,102.41A9.33,9.33,0,1,1,28.4,93,9.32,9.32,0,0,1,37.69,102.41Z" />
</svg>