<svg xmlns="http://www.w3.org/2000/svg" viewBox="0 0 125 125" stroke="#706f6f" fill="#706f6f"  stroke-miterlimit="10">
    <path
    d="M14.54,58.64,91,39.13a1.55,1.55,0,0,0,0-.34c-.83-3.48-1-3.56-4.48-2.66-3.12.81-6.26,1.61-9.39,2.4-1.31.33-2.19-.28-2.14-1.44a1.35,1.35,0,0,1,1.12-1.35c4-1,8.06-2.11,12.12-3.05,2.22-.51,4.57,1.19,5.19,3.57,1,3.74,1.9,7.49,2.86,11.23.66,2.62,1.36,5.23,2,7.85.15.64.45.77,1,.77,2.91,0,5.82,0,8.73,0,3.25,0,5.19,1.91,5.19,5.15q0,21.45,0,42.9c0,3.31-1.91,5.17-5.27,5.17-24.7,0-49.41,0-74.11,0-3.72,0-5.91-2.48-5.55-5.52a6.52,6.52,0,0,0,0-.77,16.46,16.46,0,0,1-2.64,0,4.42,4.42,0,0,1-3.78-3.52L14.67,71.23q-1.74-6.83-3.47-13.65c-.77-3,.58-5.42,3.59-6.19q26-6.66,52-13.28c.8-.21,1.54-.22,2,.59a1.32,1.32,0,0,1-.21,1.74,2.41,2.41,0,0,1-1,.54L36,49,15.46,54.27A1.78,1.78,0,0,0,14,56.66C14.18,57.3,14.36,57.94,14.54,58.64Zm56.3.43H33.64c-1.79,0-2.35.56-2.35,2.31V104c0,1.83.55,2.39,2.38,2.39h74.2c1.86,0,2.45-.6,2.45-2.47V61.4c0-1.7-.64-2.33-2.38-2.33ZM37.28,55.9l0,.16.7,0q16.78,0,33.57,0a5.56,5.56,0,0,0,1.28-.18L86,52.56l8-2.06c-.73-2.88-1.44-5.67-2.17-8.52Zm-19.08,17c.09.4.13.67.2.92.76,3,1.53,6.07,2.31,9.1q2,7.78,4,15.57c.38,1.45,1.13,1.88,2.59,1.51l1-.26V70.35ZM15.25,61.52,17.43,70l10.78-2.75c.48-3.09-.59-6.23.88-9.3ZM84.9,55.9l0,.15H95.41l-.69-2.66Z" />
    <path
    d="M88.39,83.37a9.22,9.22,0,0,1-12.67-1.65,10.49,10.49,0,0,1,0-13,9.19,9.19,0,0,1,12.6-1.6A9.18,9.18,0,0,1,101,68.74a10.4,10.4,0,0,1-.12,13.11A9.19,9.19,0,0,1,88.39,83.37Zm12-8.26c-.11-3.85-3.14-6.93-6.69-6.8a6.86,6.86,0,0,0-6.39,7,6.55,6.55,0,1,0,13.08-.23ZM86.19,69.38A6.08,6.08,0,0,0,78,70.7a7.11,7.11,0,0,0,.75,9.82c2.16,1.94,5.78,2.16,7.45.49A10.63,10.63,0,0,1,86.19,69.38Z" />
    <path
    d="M45,83.74c-1.06,0-2.13,0-3.2,0a5.28,5.28,0,0,1-5.26-5.21c0-2.2,0-4.41,0-6.61a5.29,5.29,0,0,1,5.07-5.21c2.3-.07,4.61-.07,6.91,0a5.31,5.31,0,0,1,5.07,5.21c0,2.2,0,4.41,0,6.61a5.32,5.32,0,0,1-5.27,5.21C47.21,83.75,46.11,83.74,45,83.74ZM50.59,79a1.49,1.49,0,0,0-.3-.06H48c-1.11,0-1.78-.56-1.81-1.44S46.83,76,48,76c.86,0,1.72,0,2.66,0l-.07-1.21c-1,0-1.91,0-2.81,0a1.49,1.49,0,0,1-1.63-1.4,1.51,1.51,0,0,1,1.67-1.47h2.68a2,2,0,0,0-1.83-2.17c-2.43-.1-4.87-.11-7.3,0a2,2,0,0,0-1.79,2.17h2.7a1.45,1.45,0,1,1,0,2.87c-.92,0-1.85,0-2.82,0v1.1a1.13,1.13,0,0,0,.26.09c.8,0,1.6,0,2.41,0,1.13,0,1.78.55,1.8,1.45s-.68,1.47-1.77,1.48c-.86,0-1.71,0-2.59,0a2.22,2.22,0,0,0,2.2,1.93c2.2.06,4.41,0,6.61,0A2.34,2.34,0,0,0,50.59,79Z" />
    <path
    d="M77.65,98H102.5c.3,0,.61,0,.91,0a1.31,1.31,0,0,1,1.3,1.37,1.36,1.36,0,0,1-1.26,1.43,3,3,0,0,1-.6,0H52.55a1.63,1.63,0,0,1-1.69-.82,1.39,1.39,0,0,1,1.24-2c.93,0,1.87,0,2.8,0Z" />
    <path
    d="M52.89,95.14H37.35A4.71,4.71,0,0,1,36.16,95a1.4,1.4,0,0,1,.1-2.73,4.81,4.81,0,0,1,1-.07H68.44c.17,0,.34,0,.51,0,1.08.07,1.68.59,1.68,1.46a1.51,1.51,0,0,1-1.7,1.44c-2.14,0-4.28,0-6.42,0Z" />
    <path
    d="M40.83,98h2.8a1.32,1.32,0,0,1,1.43,1.35,1.35,1.35,0,0,1-1.41,1.47q-2.85,0-5.7,0a1.34,1.34,0,0,1-1.41-1.46A1.29,1.29,0,0,1,37.94,98C38.9,97.94,39.87,98,40.83,98Z" />
</svg>