<svg xmlns="http://www.w3.org/2000/svg" viewBox="0 0 125 125" stroke="#706f6f" fill="#706f6f"  stroke-miterlimit="10">
    <path
    d="M107,55.89a79,79,0,0,1-5.86,30.23,60.62,60.62,0,0,1-9.83,16.3,42.66,42.66,0,0,1-15.23,11.65A33,33,0,0,1,63.43,117a34.46,34.46,0,0,1-20.62-6.32A47.93,47.93,0,0,1,30.47,98.17,67.94,67.94,0,0,1,20.31,75a81.53,81.53,0,0,1-2.25-16.45,82.33,82.33,0,0,1,3.16-26.17c.68-2.32,1.54-4.59,2.36-6.87a1.72,1.72,0,0,1,2.58-.91A68.77,68.77,0,0,0,44.7,31.68a79.8,79.8,0,0,0,14.92,1.94,79.5,79.5,0,0,0,14.05-.72A72.25,72.25,0,0,0,92.6,27.71c2.08-.91,4.09-2,6.11-3a1.82,1.82,0,0,1,2.83,1,77.44,77.44,0,0,1,4.35,15.75A78.15,78.15,0,0,1,107,52.84C107,53.86,107,54.88,107,55.89ZM26.14,28.59,26,29a77.9,77.9,0,0,0-4.46,23.8A80,80,0,0,0,22,64.27a74.62,74.62,0,0,0,4.3,18.28,56.91,56.91,0,0,0,12.07,19.72A37.6,37.6,0,0,0,50.2,110.8a29.32,29.32,0,0,0,21.87,1.08A36.62,36.62,0,0,0,87.18,101.8a54.76,54.76,0,0,0,9.95-15.21,75,75,0,0,0,6.4-28.44,80.2,80.2,0,0,0-.49-12,77.34,77.34,0,0,0-3.57-16c-.17-.5-.36-1-.55-1.53a77.63,77.63,0,0,1-36.37,8.57A77.66,77.66,0,0,1,26.14,28.59Z" />
    <path
    d="M62.3,103.29A19.06,19.06,0,0,1,49,97.66a23.82,23.82,0,0,1-7.21-15.19c-.14-1.41-.1-2.83-.12-4.25a1.2,1.2,0,0,1,.78-1.2,1.35,1.35,0,0,1,1.43.24,26.7,26.7,0,0,0,12.86,5.88A31.8,31.8,0,0,0,72.65,82a24.81,24.81,0,0,0,8.46-4.7,1.29,1.29,0,0,1,1.78-.13,1.67,1.67,0,0,1,.49,1c.32,8.41-2.38,15.56-9,20.94A18.72,18.72,0,0,1,62.3,103.29Zm-18-22.37a3.48,3.48,0,0,0,0,.46c.22,1.38.33,2.8.68,4.15a20.41,20.41,0,0,0,8.18,12.15,15.87,15.87,0,0,0,10.6,2.93A16.77,16.77,0,0,0,75,95a21.66,21.66,0,0,0,5.56-11.69c.12-.77.18-1.56.28-2.44a32.22,32.22,0,0,1-18.29,5.38A32.16,32.16,0,0,1,44.28,80.92Z" />
    <path
    d="M42.49,58.24A22.31,22.31,0,0,0,33,60.16c-.45.22-.87.47-1.3.71a1.32,1.32,0,0,1-2.12-1.14,9.57,9.57,0,0,1,2.79-7.33,13.13,13.13,0,0,1,9.22-4,13.51,13.51,0,0,1,10,3.41,9.7,9.7,0,0,1,3.43,8,1.31,1.31,0,0,1-2.09,1.15,19.17,19.17,0,0,0-8.47-2.55C43.71,58.28,43,58.26,42.49,58.24Zm-10.16-.7a25.66,25.66,0,0,1,9.92-1.9,25.75,25.75,0,0,1,9.91,1.89c-.07-.24-.1-.41-.16-.58a8.13,8.13,0,0,0-2.2-3.22,10.77,10.77,0,0,0-6.2-2.67,11.3,11.3,0,0,0-8.25,2.14A8,8,0,0,0,32.33,57.54Z" />
    <path
    d="M82.6,58.24a21.65,21.65,0,0,0-9.15,1.94c-.4.19-.79.41-1.18.64a1.34,1.34,0,0,1-2.21-1.17,9.89,9.89,0,0,1,4-8.36,13.36,13.36,0,0,1,8.35-2.92,13.54,13.54,0,0,1,9.48,3.26A9.89,9.89,0,0,1,95.54,59a5.49,5.49,0,0,1,0,.81,1.34,1.34,0,0,1-2.08,1.09,30,30,0,0,0-3.67-1.64A22.12,22.12,0,0,0,82.6,58.24Zm10.09-.75c0-.16-.08-.3-.13-.44A8.16,8.16,0,0,0,89,52.73a11.6,11.6,0,0,0-9-1.44,9.68,9.68,0,0,0-6.26,4.16,5.83,5.83,0,0,0-.88,2A27.17,27.17,0,0,1,92.69,57.49Z" />
</svg>