<svg xmlns="http://www.w3.org/2000/svg" viewBox="0 0 125 125" stroke="#706f6f" fill="#706f6f"  stroke-miterlimit="10">
    <path
    d="M34.48,45.91a10.48,10.48,0,0,1-3.6,3.53,9.71,9.71,0,0,1-2.54,1,.37.37,0,0,0-.32.37q-.75,5.73-1.52,11.46c-.41,3.09-.81,6.18-1.22,9.27-.27,2-.53,4-.81,6,0,.22,0,.3.24.29.48,0,1,0,1.44,0a1.46,1.46,0,0,1,1.43,1,7.92,7.92,0,1,1-15,0,1.51,1.51,0,0,1,1.42-1h3.26c.2,0,.27-.06.3-.26.37-2.83.74-5.67,1.12-8.5.45-3.39.91-6.79,1.36-10.18.4-3,.79-6,1.19-9A.24.24,0,0,0,21,49.7a10.13,10.13,0,0,1-5.56-8.54,2.75,2.75,0,0,1,0-.86,1.47,1.47,0,0,1,.91-1.07l19.81-8Q48,26.42,59.82,21.63a2.36,2.36,0,0,1,1.93,0q9.6,3.91,19.2,7.78l22.2,9,2,.79a1.44,1.44,0,0,1,1,1.42,10.11,10.11,0,0,1-4.18,8.2.83.83,0,0,0-.38.91q1.18,8.77,2.34,17.55c.45,3.43.91,6.85,1.36,10.28,0,.26.11.36.39.35,1,0,2.07,0,3.11,0a1.49,1.49,0,0,1,1.52,1.1A7.92,7.92,0,1,1,95,83a8,8,0,0,1,.23-4,1.47,1.47,0,0,1,1.45-1.07h1.49c.18,0,.22,0,.19-.23Q97.4,70.84,96.49,64q-.84-6.42-1.69-12.85c0-.28-.13-.4-.42-.44a10.1,10.1,0,0,1-7.16-4.59c0-.06-.07-.15-.16-.19A10.59,10.59,0,0,1,85,48.37a8.2,8.2,0,0,1-1.13.83.34.34,0,0,0-.19.38c.6,4.46,1.18,8.91,1.77,13.36q1,7.35,2,14.71c0,.21.1.26.3.26h3.2A1.47,1.47,0,0,1,92.39,79a7.91,7.91,0,1,1-15.3,4,7.78,7.78,0,0,1,.22-4,1.48,1.48,0,0,1,1.5-1.09h1.4c.23,0,.27-.07.24-.27q-.47-3.39-.91-6.78l-1-7.52c-.38-2.81-.75-5.61-1.13-8.41-.17-1.33-.35-2.65-.52-4,0-.19-.09-.24-.27-.27a10.19,10.19,0,0,1-6.15-3.49,9.26,9.26,0,0,1-.92-1.28c-.21.28-.39.55-.58.81a9.7,9.7,0,0,1-1.78,1.84.41.41,0,0,0-.16.33c0,.35,0,.7,0,1.05q0,23,0,46.06c0,.3.08.4.38.42A70.34,70.34,0,0,1,77,97.78a48.42,48.42,0,0,1,11.6,3.88,23.57,23.57,0,0,1,5,3.22,12.33,12.33,0,0,1,3.65,4.88,2.31,2.31,0,0,1,.25,1.18A1.45,1.45,0,0,1,96,112.21c-.16,0-.33,0-.5,0H25.72a1.46,1.46,0,0,1-1.52-2.07,10.54,10.54,0,0,1,2.17-3.68,18.27,18.27,0,0,1,3.9-3.27,35.4,35.4,0,0,1,7.63-3.58A61.2,61.2,0,0,1,49.22,97c1.66-.24,3.32-.43,5-.55.23,0,.32-.07.32-.33q0-23.55,0-47.1a.54.54,0,0,0-.23-.47,9.75,9.75,0,0,1-2.13-2.4c-.12-.18-.16-.2-.29,0a10.12,10.12,0,0,1-5.7,4.28.32.32,0,0,0-.26.3q-.75,5.71-1.51,11.41-.81,6.17-1.64,12.34c-.14,1.06-.28,2.11-.43,3.17,0,.21,0,.3.25.29.46,0,.93,0,1.4,0A1.46,1.46,0,0,1,45.46,79,7.91,7.91,0,0,1,31,85.23a7.71,7.71,0,0,1-.58-6.3,1.43,1.43,0,0,1,1.42-1h3.23c.24,0,.3-.08.32-.3.43-3.25.87-6.51,1.3-9.77s.89-6.75,1.34-10.13c.32-2.43.64-4.87,1-7.31a.51.51,0,0,0-.33-.65,10,10,0,0,1-4.1-3.69A1.26,1.26,0,0,0,34.48,45.91Zm26.29,63.42H93.52a.29.29,0,0,0,.17,0c0-.07,0-.12-.07-.18a12.21,12.21,0,0,0-1.94-2.06,24.19,24.19,0,0,0-6.26-3.68,49.67,49.67,0,0,0-9.7-2.9,75.7,75.7,0,0,0-8.34-1.17c-.27,0-.32.06-.32.32,0,2,0,4.1,0,6.15a1.47,1.47,0,0,1-1.54,1.54c-3.14,0-6.27,0-9.41,0a1.55,1.55,0,0,1-1.61-1.6c0-2,0-4.08,0-6.13,0-.26-.07-.31-.32-.29-.78.09-1.56.16-2.35.24a64.35,64.35,0,0,0-10.39,2,39,39,0,0,0-7.86,3.07A16.45,16.45,0,0,0,28.07,109c-.08.1-.24.2-.2.31s.23.06.35.06Zm3.36-59a.33.33,0,0,0-.2,0,10.56,10.56,0,0,1-2.84.48,10.2,10.2,0,0,1-3.47-.49c-.17-.05-.24,0-.22.16s0,.26,0,.39l0,53a1.93,1.93,0,0,1,0,.24c0,.23,0,.3.29.3h6.13c.25,0,.31-.06.31-.31,0-2.32,0-4.64,0-7q0-23.25,0-46.5A.74.74,0,0,0,64.13,50.31ZM60.78,26.08l-6.47,13H67.24ZM57,27.21l0,0L39.26,39.11H50.83a.35.35,0,0,0,.36-.24q2.13-4.32,4.28-8.64ZM82.22,39.13l0-.07L64.65,27.18a.26.26,0,0,0,0,.19l5.71,11.52a.35.35,0,0,0,.38.24c3.75,0,7.49,0,11.24,0ZM78.32,42h-6.9c-.34,0-.33,0-.25.34a7.82,7.82,0,0,0,.51,1.4,7.29,7.29,0,0,0,7.88,4,7.19,7.19,0,0,0,5.9-5.46c.09-.3,0-.33-.27-.32ZM43.26,42h-7c-.21,0-.28,0-.22.26a7.16,7.16,0,0,0,.7,1.8A7.37,7.37,0,0,0,50.4,42.35c.07-.26,0-.32-.24-.31ZM25.73,42h-7c-.2,0-.28,0-.23.25a7.35,7.35,0,0,0,8.66,5.49,7.2,7.2,0,0,0,5.67-5.44c.07-.25,0-.31-.24-.31C30.33,42.05,28,42,25.73,42Zm70.11,0H88.91c-.22,0-.29,0-.22.27a8.78,8.78,0,0,0,.55,1.51A7.36,7.36,0,0,0,103,42.33c.07-.24,0-.3-.22-.29Zm-35,0c-2.31,0-4.62,0-6.93,0-.27,0-.31.07-.25.32a7.38,7.38,0,0,0,14.32,0c.06-.25,0-.29-.24-.29ZM48.25,29.52l0-.06-23.71,9.6a.57.57,0,0,0,.27.07c3,0,6,0,9.05,0a.82.82,0,0,0,.46-.16l11.88-8Zm25.16,0,0,.09.34.23L87.3,39a.84.84,0,0,0,.5.15h9a.5.5,0,0,0,.31,0ZM20.08,80.78c-1.58,0-3.16,0-4.75,0-.2,0-.26,0-.28.26a5,5,0,1,0,10.05.09c0-.27-.09-.36-.39-.35C23.17,80.79,21.63,80.78,20.08,80.78Zm64.76,0c-1.56,0-3.13,0-4.69,0-.25,0-.32.08-.33.31A5.28,5.28,0,0,0,80,82.63a5,5,0,0,0,9.89-1.55c0-.25-.1-.3-.34-.3C88,80.79,86.41,80.78,84.84,80.78Zm17.88,0c-1.57,0-3.15,0-4.72,0-.25,0-.3.09-.31.3a5.08,5.08,0,0,0,.59,2.71,5,5,0,0,0,9.45-2.7c0-.24-.07-.31-.32-.31C105.85,80.79,104.28,80.78,102.72,80.78Zm-64.79,0H33.51c-.61,0-.61,0-.61.64A5,5,0,1,0,43,81.06c0-.22-.08-.28-.3-.28C41.08,80.79,39.5,80.78,37.93,80.78Zm63.88-2.88h.12c.48,0,.46.09.39-.45q-.6-4.56-1.22-9.11T99.88,59.1c-.34-2.63-.69-5.25-1-7.88,0-.25,0-.61-.15-.73s-.48.11-.74.13-.31.12-.28.38c.4,2.9.78,5.8,1.16,8.7s.79,5.88,1.18,8.82.77,5.89,1.16,8.83C101.25,77.9,101.25,77.9,101.81,77.9Zm-17.89,0a2.43,2.43,0,0,1,.27,0c.27,0,.33-.05.29-.33-.16-1-.29-2.11-.43-3.16l-1.17-8.85-1.17-8.8c-.26-2-.53-4-.79-6,0-.19-.06-.3-.3-.21a1.58,1.58,0,0,1-.49.1c-.3,0-.35.14-.31.43l1.65,12.31q.93,7,1.85,14C83.39,77.9,83.39,77.9,83.92,77.9Zm-63,0a1.08,1.08,0,0,1,.18,0c.31,0,.42-.07.45-.39.05-.65.16-1.29.25-1.93L23.25,65c.35-2.66.71-5.32,1.06-8l.78-5.92c0-.17,0-.25-.19-.26a4,4,0,0,1-.68-.09c-.17,0-.22,0-.25.2q-.88,6.72-1.78,13.44l-1.71,13C20.4,77.9,20.4,77.9,21,77.9Zm17.87,0c.68,0,.55.06.6-.34.33-2.4.65-4.79,1-7.19l1.53-11.6c.35-2.58.69-5.15,1-7.73,0-.14,0-.22-.17-.21a4.62,4.62,0,0,1-.65-.06c-.22,0-.28,0-.31.26-.34,2.62-.7,5.23-1,7.84q-1.22,9.24-2.45,18.47C38.26,77.9,38.26,77.9,38.83,77.9Z" />
</svg>