<svg xmlns="http://www.w3.org/2000/svg" viewBox="0 0 125 125" stroke="#706f6f" fill="#706f6f"  stroke-miterlimit="10">
    <path class="cls-1"
    d="M66.67,18.37A19.28,19.28,0,0,1,70.19,20a8,8,0,0,1,2.23,10.33l-.37.71c1.84.57,3.65,1.07,5.41,1.71a36.22,36.22,0,0,1,3.87,1.73,2,2,0,0,1,1.1,2.85,2.05,2.05,0,0,1-3,.78A32.12,32.12,0,0,0,69.61,35a29.41,29.41,0,0,0-18.87,3.43A35.07,35.07,0,0,0,33.65,59.7a2.28,2.28,0,0,0,0,.37H97.22c-1-2.32-1.78-4.6-2.86-6.75-.9-1.8-2.1-3.45-3.18-5.16a2.06,2.06,0,0,1-.05-2.38A1.77,1.77,0,0,1,93.24,45a3.16,3.16,0,0,1,1.41,1A38,38,0,0,1,101,59.13c.2.77.49,1.18,1.36,1a6.64,6.64,0,0,1,1.41,0,2,2,0,0,1,2,2,1.83,1.83,0,0,1-2,2c-2.24-.35-3.41.58-4.07,2.61a12.9,12.9,0,0,1-1.26,2.52,5.84,5.84,0,0,1-5.28,3H37.42A5.88,5.88,0,0,1,32,69.06c-.75-1.36-1.42-2.76-2.08-4.17a1,1,0,0,0-1.17-.69,19.44,19.44,0,0,1-2,0,2.06,2.06,0,0,1-2-2,2,2,0,0,1,2.07-2c.81,0,1.62,0,2.39,0,4.47-15.1,14-25,29.28-29a21.62,21.62,0,0,1-1.06-2.85,8.11,8.11,0,0,1,5.81-9.65c.22-.07.43-.16.64-.24ZM34.16,64.26c.35.71.72,1.32,1,2,.57,1.56,1.64,2.07,3.28,2.06,13.55,0,27.1,0,40.65,0,4.52,0,9,0,13.58,0a3,3,0,0,0,2.05-.76,18.89,18.89,0,0,0,1.77-3.21Zm35.16-37.8a4,4,0,1,0-4.06,4.07A4.08,4.08,0,0,0,69.32,26.46Z" />
    <path class="cls-1"
    d="M75.52,86.2l11-9.18A6.07,6.07,0,0,1,92,75.7a6.35,6.35,0,0,1,3,10.78c-3.68,3.44-7.41,6.82-11.12,10.23l-6.13,5.62a10.38,10.38,0,0,1-7.35,2.86q-8.58,0-17.14,0a2.4,2.4,0,0,0-1.48.6c-1.62,1.53-3.18,3.13-4.82,4.76,1.06,1.6.25,2.71-.92,3.83-2.37,2.27-4.65,4.63-7,6.94-1.25,1.25-2.25,1.25-3.49,0q-7.75-7.74-15.49-15.49c-1.28-1.28-1.23-2.25.08-3.54q3.75-3.7,7.46-7.46a2.4,2.4,0,0,1,2.56-.73,1.3,1.3,0,0,0,1-.37c2.63-2.59,5.26-5.17,7.82-7.82a11.06,11.06,0,0,1,8.42-3.51c7,.08,13.92,0,20.89,0C72.34,82.45,73.21,82.9,75.52,86.2ZM44.09,107.66c1.83-1.83,3.69-3.65,5.49-5.52a3.18,3.18,0,0,1,2.51-1c6,0,12.1,0,18.15,0a6.37,6.37,0,0,0,4.47-1.59Q83.38,91.58,92,83.63a2.23,2.23,0,0,0,.33-3.17,2.17,2.17,0,0,0-3.24-.22q-7.66,6.39-15.29,12.83a5.61,5.61,0,0,1-3.56,1.54c-5.61,0-11.22,0-16.83,0a2.5,2.5,0,0,1-1.72-1.14c-.81-1.31.28-2.86,1.94-2.86,5.14,0,10.28,0,15.41,0a4.8,4.8,0,0,0,1.2-.12,1.86,1.86,0,0,0,1.46-1.84,1.91,1.91,0,0,0-1.45-2,4.3,4.3,0,0,0-1.19-.11c-7.3,0-14.6,0-21.91,0a6.69,6.69,0,0,0-5,2C40,90.81,37.77,93,35.54,95.23c-.67.66-1.36,1.3-2,1.9Zm-19.61-3.58L37.35,117l4.88-4.88L29.34,99.19Z" />
    <path class="cls-1" d="M89.41,40.88a2,2,0,0,1-2,2,2,2,0,1,1,0-4A2,2,0,0,1,89.41,40.88Z" />
</svg>