<svg xmlns="http://www.w3.org/2000/svg" viewBox="0 0 125 125" stroke="#706f6f" fill="#706f6f"  stroke-miterlimit="10">
    <path
    d="M102,91.43c2.11-.6,4.24-1.12,6.31-1.83,1.91-.64,3.76-1.47,5.63-2.24,1.43-.58,2.4-.36,2.87.71s-.08,1.92-1.38,2.55A55.83,55.83,0,0,1,87.77,95.9,79.27,79.27,0,0,1,62.46,90a59.68,59.68,0,0,0-37.14-2.94c-3.43.83-6.77,2-10.14,3.06a6.66,6.66,0,0,1-1.34.36A1.65,1.65,0,0,1,12,89.32a1.6,1.6,0,0,1,.81-2.08c.58-.3,1.19-.54,1.59-.72a46.14,46.14,0,0,1-2-6.61,68.18,68.18,0,0,1-.48-8.59c0-1.18.72-1.81,1.94-1.87.73,0,1.46,0,2.26,0,.57-3.08,1.12-6.06,1.68-9q1.05-5.67,2.12-11.35c.31-1.63.85-2.08,2.54-2.09h5.6c0-1.21,0-2.28,0-3.36-.12-3.18-.28-6.36-.41-9.55-.07-1.93.6-2.64,2.52-2.64q4.24,0,8.51,0c1.86,0,2.31.34,2.82,2.1,1.2,4.11,2.41,8.21,3.55,12.33A1.31,1.31,0,0,0,46.57,47c7.62,0,15.24,0,22.85,0a4.32,4.32,0,0,1,3.38,1.42c6.61,6.75,13.27,13.44,19.89,20.18a2.76,2.76,0,0,0,2.13.91c6.49,0,13,0,19.47,0a5.88,5.88,0,0,1,1.39.09c1.34.35,1.67,1.82.67,3.11-1.76,2.27-3.56,4.52-5.34,6.78q-4.4,5.58-8.8,11.17a5.28,5.28,0,0,0-.37.55ZM15.48,73.06c0,3.82.21,7.44,1.95,10.81.57,1.09,1.1,1.32,2.34.94,11.58-3.56,23.3-4.21,35.06-1,4.56,1.23,9,3,13.46,4.54a69.07,69.07,0,0,0,26.93,4,2.5,2.5,0,0,0,2-1.1c4-5.12,8-10.21,12-15.32.68-.87,1.34-1.75,2.14-2.79Zm72.69-3.7.26-.35c-2.17-2.1-4.37-4.18-6.5-6.32a2.85,2.85,0,0,0-2.25-.91q-28.49,0-57,0a3.13,3.13,0,0,0-.92,0c-.25.08-.59.3-.63.51-.47,2.31-.9,4.62-1.35,7ZM21.9,58.05H77.48c-2.4-2.37-4.58-4.47-6.7-6.63a2.72,2.72,0,0,0-2.13-.89q-22,0-43.94,0a2.71,2.71,0,0,0-.81,0c-.25.08-.61.27-.65.47C22.77,53.35,22.35,55.67,21.9,58.05Zm9.42-23c.14,3.19.27,6.21.39,9.23.11,2.7.1,2.7,2.75,2.7h7.09a2.51,2.51,0,0,0,0-.49c-1.06-3.61-2.11-7.22-3.2-10.82a1,1,0,0,0-.69-.59C35.61,35,33.56,35,31.32,35Z" />
    <path
    d="M92.59,107.59a80.19,80.19,0,0,1-29.85-6A60.61,60.61,0,0,0,23.58,99c-2.93.77-5.76,1.86-8.66,2.74a3.51,3.51,0,0,1-2,.07A1.64,1.64,0,0,1,12.55,99a3.89,3.89,0,0,1,1-.56,70.27,70.27,0,0,1,28.94-5A62.66,62.66,0,0,1,62.8,97.83c9.91,4,20.1,6.47,30.86,6.06a49.93,49.93,0,0,0,19.69-4.75c.32-.15.63-.32,1-.44a1.82,1.82,0,0,1,2.47.86,1.9,1.9,0,0,1-1,2.44c-.66.34-1.35.6-2,.9A53.83,53.83,0,0,1,92.59,107.59Z" />
    <path
    d="M98.69,80.8a5.91,5.91,0,1,1-6-5.87A5.88,5.88,0,0,1,98.69,80.8ZM92.8,78.52a2.33,2.33,0,0,0-.08,4.65,2.27,2.27,0,0,0,2.4-2.29A2.24,2.24,0,0,0,92.8,78.52Z" />
</svg>