<svg xmlns="http://www.w3.org/2000/svg" viewBox="0 0 481.649 481.649" stroke="#706f6f" fill="#706f6f"  stroke-miterlimit="10">
    <path class="cls-1" d="M481.341,240.48c-9.718-55.826-38.927-106.879-82.304-143.826c-41.146-35.045-92.862-55.383-146.723-57.927V19.95
        c0-6.351-5.148-11.5-11.5-11.5c-6.351,0-11.5,5.149-11.5,11.5v18.778c-53.86,2.543-105.576,22.88-146.722,57.926
        C39.029,133.758,9.756,185.09,0.166,241.194c-0.001,0.001-0.001,0.002-0.001,0.003h0c-0.19,1.117-0.213,2.228-0.084,3.302
        c0.633,5.352,4.953,9.627,10.447,10.094c3.066,0.264,5.971-0.71,8.207-2.519c0.923-0.746,1.737-1.639,2.401-2.657
        c0.56-0.858,1.011-1.8,1.33-2.808c6.677-19.97,25.288-33.378,46.357-33.378c21.121,0,39.77,13.469,46.403,33.517
        c1.558,4.708,5.958,7.887,10.918,7.887c4.959,0,9.36-3.179,10.917-7.887c6.635-20.048,25.283-33.517,46.404-33.517
        c20.564,0,38.78,12.773,45.851,31.951v175.893c0,15.788-12.822,29.125-28,29.125c-15.439,0-28-12.561-28-28
        c0-6.351-5.149-11.5-11.5-11.5c-6.351,0-11.5,5.149-11.5,11.5c0,28.122,22.878,51,51,51c13.64,0,26.503-5.561,36.218-15.658
        c9.532-9.908,14.782-22.858,14.782-36.467V245.016c7.111-19.087,25.284-31.785,45.79-31.785c21.121,0,39.771,13.47,46.404,33.518
        c1.559,4.708,5.959,7.887,10.918,7.887c4.959,0,9.359-3.179,10.918-7.887c6.635-20.048,25.282-33.518,46.403-33.518
        c21.12,0,39.769,13.47,46.403,33.518c1.516,4.579,5.728,7.725,10.548,7.88l0.06,0.002c0.131,0.004,0.276,0.007,0.39,0.006
        c6.352,0,11.5-5.149,11.5-11.5C481.649,242.222,481.543,241.333,481.341,240.48z M412.749,190.231
        c-23,0-44.007,10.863-57.321,28.473c-13.314-17.61-34.321-28.473-57.322-28.473c-23,0-44.006,10.862-57.32,28.473
        c-13.315-17.61-34.321-28.473-57.321-28.473c-23,0-44.006,10.862-57.321,28.473c-13.315-17.61-34.321-28.473-57.321-28.473
        c-11.572,0-22.639,2.75-32.477,7.726C69.786,116.625,149.426,61.45,240.815,61.45c91.402,0,171.052,55.191,204.484,136.544
        C435.443,192.994,424.35,190.231,412.749,190.231z" />
</svg>