<svg xmlns="http://www.w3.org/2000/svg" viewBox="0 0 125 125" stroke="#706f6f" fill="#706f6f"  stroke-miterlimit="10">
    <path class="cls-1"
    d="M115.59,87.39c-.2.17-.15.43-.21.65a14.61,14.61,0,0,1-.95,2.4,6.2,6.2,0,0,1-4.75,3.27c-4.68,1-9.38,1.84-14.07,2.75-5.73,1.12-11.47,2.13-17.17,3.37a2.16,2.16,0,0,0-1,.35c1.23.23,2.41.44,3.58.67a8.68,8.68,0,0,1,3.82,1.59,5.75,5.75,0,0,0,4.28,1,22.57,22.57,0,0,0,6.79-1.83c1.06-.43,2.11-.83,3.18-1.23a9.1,9.1,0,0,1,6.46,0c2,.72,3.89,1.58,5.93,2.12a15.36,15.36,0,0,0,2.15.39c.22,0,.41,0,.41.37q0,4.07,0,8.15a.59.59,0,0,1,0,.14c-2-.6-4.1-1.16-6.13-1.8a22,22,0,0,0-7.11-1.05,11.28,11.28,0,0,0-4.91,1.16,16.72,16.72,0,0,1-3.61,1.48A13,13,0,0,1,86.4,111a33,33,0,0,1-5-1.77,12.41,12.41,0,0,0-10.21.34,12.18,12.18,0,0,1-5,1.36,32.26,32.26,0,0,1-6-.54c-2.28-.4-4.47-1.12-6.72-1.63A7.72,7.72,0,0,0,47,109.89a7.64,7.64,0,0,1-4.25,1.76c-1.07,0-2.14,0-3.21,0a13.07,13.07,0,0,1-5.5-1.3,16.8,16.8,0,0,0-4.88-1.53,13.32,13.32,0,0,0-7.19.8,43.08,43.08,0,0,1-5.57,2c-.42.13-.56.06-.58-.4-.16-2.78-.07-5.57-.1-8.35,0-.22,0-.39.31-.38a17.19,17.19,0,0,0,7.63-1.64,13.73,13.73,0,0,1,11.49.3,10.12,10.12,0,0,0,3.34,1.15,21.7,21.7,0,0,0,6.53-.45c7.56-1.68,15.17-3.13,22.79-4.55l21.59-4c5.49-1,11-2,16.43-3.19.71-.15,1.41-.36,2.12-.53a7.59,7.59,0,0,0,4.81-4,9.66,9.66,0,0,1,.83-1.34c.46-.57.79-.56,1.29-.05a5,5,0,0,1,.75,1.45Z" />
    <path class="cls-1"
    d="M42.22,30c6.47.17,12.94.41,19.41.47a3.39,3.39,0,0,1,2.95,4.6,1.6,1.6,0,0,1-1.28,1,31.77,31.77,0,0,1-4.56.39c-6.47.3-12.93.57-19.4.85-1,0-2,.13-3.05.17-.31,0-.45.06-.37.44,1.18,5.76,2.51,11.49,3.92,17.2a1.38,1.38,0,0,0,.68.83c2.55,1.71,5.2,3.26,7.8,4.89,1.09.68,2.15,1.42,3.26,2.08A3.25,3.25,0,0,1,53,64.8a37.57,37.57,0,0,1,1.41,5.62c1,5.82,1.87,11.69,2.67,17.55.23,1.74.45,3.47.67,5.21A3.06,3.06,0,0,1,54.65,97c-.13,0-.27,0-.4,0a2.48,2.48,0,0,1-2.87-2c-1.23-3.87-2.45-7.75-3.69-11.62s-2.52-7.76-3.77-11.65a1.14,1.14,0,0,0-.67-.75L32.34,66.2c-.68-.3-1.35-.63-2-.93a10,10,0,0,1-6-7c-.91-3.4-1.61-6.86-2.33-10.31-.94-4.46-1.86-8.93-2.61-13.43a11.76,11.76,0,0,1-.16-1.57A3,3,0,0,1,22.3,29.7c2.32-.17,4.65,0,7,0,4.31.07,8.62.19,12.94.29Z" />
    <path class="cls-1"
    d="M33.14,19.81a7.8,7.8,0,0,1-7.85,8,8,8,0,1,1-.11-16A7.85,7.85,0,0,1,33.14,19.81Z" />
    <path class="cls-1"
    d="M91.05,34.81q11.24,0,22.46,0c.47,0,.59.13.55.57a6.74,6.74,0,0,0,0,1.27c0,.43-.13.49-.51.49H68.46c-.42,0-.52-.12-.49-.51a8.31,8.31,0,0,0,0-1.32c0-.42.12-.49.51-.49Z" />
</svg>